<svg xmlns="http://www.w3.org/2000/svg" xmlns:xlink="http://www.w3.org/1999/xlink" viewBox="0 0 101.67 64.75"><defs><style>.cls-1{mask:url(#mask);}.cls-2{fill:none;stroke:#3fa9f5;stroke-miterlimit:10;stroke-width:5px;}.cls-3{mask:url(#mask-2);}.cls-4{fill:#3fa9f5;}.cls-5{filter:url(#luminosity-noclip-2);}.cls-6{filter:url(#luminosity-noclip);}</style><filter id="luminosity-noclip" x="13.55" y="23.68" width="100.82" height="79.19" filterUnits="userSpaceOnUse" color-interpolation-filters="sRGB"><feFlood flood-color="#fff" result="bg"/><feBlend in="SourceGraphic" in2="bg"/></filter><mask id="mask" x="0" y="-7.98" width="100.82" height="79.19" maskUnits="userSpaceOnUse"><g class="cls-6"><g transform="translate(-13.55 -31.67)"><polygon points="64.81 87.95 39.08 102.88 45.32 73.79 23.17 53.93 52.76 50.88 64.81 23.68 76.85 50.88 106.44 53.93 84.29 73.79 90.54 102.88 64.81 87.95"/></g></g></mask><filter id="luminosity-noclip-2" x="14.4" y="23.68" width="100.82" height="79.19" filterUnits="userSpaceOnUse" color-interpolation-filters="sRGB"><feFlood flood-color="#fff" result="bg"/><feBlend in="SourceGraphic" in2="bg"/></filter><mask id="mask-2" x="0.85" y="-7.98" width="100.82" height="79.19" maskUnits="userSpaceOnUse"><g class="cls-5"><g transform="translate(-13.55 -31.67)"><polygon points="64.81 87.95 39.08 102.88 45.32 73.79 23.17 53.93 52.76 50.88 64.81 23.68 76.85 50.88 106.44 53.93 84.29 73.79 90.54 102.88 64.81 87.95"/></g></g></mask></defs><title>logo</title><g id="Background"><g class="cls-1"><path class="cls-2" d="M14.82,75.1S33,64.3,63.57,71.41s49.56-3.75,49.56-3.75" transform="translate(-13.55 -31.67)"/></g><g class="cls-3"><path class="cls-2" d="M15.68,86.38s18.23-10.8,48.75-3.69S114,78.94,114,78.94" transform="translate(-13.55 -31.67)"/></g></g><g id="Layer_1" data-name="Layer 1"><polygon class="cls-4" points="51.26 0 61.1 22.24 85.3 24.73 67.19 40.97 72.3 64.75 51.26 52.55 30.22 64.75 35.32 40.97 17.22 24.73 41.41 22.24 51.26 0"/></g></svg>